<svg width="111" height="111" viewBox="0 0 111 111" fill="none" xmlns="http://www.w3.org/2000/svg">
<path id="Vector" fill-rule="evenodd" clip-rule="evenodd" d="M18.0745 0.887082L93.5117 0.886597C96.1806 0.886597 98.8475 1.27857 101.635 2.57794C104.975 4.13525 106.747 6.58988 107.988 8.40515C108.085 8.54638 108.175 8.69192 108.259 8.84083C109.718 11.4386 110.47 14.2434 110.47 17.2605C110.47 20.1273 109.788 23.2506 108.259 25.9728C108.244 25.9992 108.229 26.0247 108.214 26.0506L60.5544 107.92C59.5034 109.726 57.569 110.833 55.4799 110.826C53.3908 110.819 51.4641 109.697 50.4261 107.884L3.64119 26.1894C3.62774 26.1673 3.61429 26.1452 3.60084 26.1226C2.53012 24.3583 0.874333 21.6299 0.584678 18.1088C0.31856 14.8708 1.0463 11.6264 2.67327 8.81345C4.30024 6 6.74958 3.75097 9.69561 2.37426C12.8544 0.898125 16.0555 0.887082 18.0745 0.887082ZM49.6527 12.5823H18.0745C15.9998 12.5823 15.2034 12.7101 14.6466 12.9705C13.8766 13.3298 13.2301 13.9211 12.7978 14.6685C12.3654 15.4164 12.1699 16.283 12.241 17.1505C12.2819 17.6477 12.4846 18.2164 13.6802 20.1883C13.7052 20.2296 13.7296 20.2714 13.7537 20.3132L49.6527 82.9993V12.5823ZM61.3484 12.5823V83.3092L98.0789 20.2138C98.4935 19.4606 98.7745 18.3721 98.7745 17.2605C98.7745 16.3589 98.5876 15.5759 98.1697 14.7689C97.7311 14.1382 97.4641 13.8044 97.2407 13.5757C97.049 13.3802 96.9016 13.2755 96.6931 13.1785C95.8246 12.7735 94.936 12.5823 93.5117 12.5823H61.3484Z" fill="white"/>
</svg>
