<svg width="99" height="99" viewBox="0 0 99 99" fill="none" xmlns="http://www.w3.org/2000/svg">
<g clip-path="url(#clip0_129_1015)">
<path d="M49.5631 98.6012C76.5802 98.6012 98.4819 76.6995 98.4819 49.6824C98.4819 22.6653 76.5802 0.763672 49.5631 0.763672C22.546 0.763672 0.644379 22.6653 0.644379 49.6824C0.644379 76.6995 22.546 98.6012 49.5631 98.6012Z" fill="url(#paint0_linear_129_1015)"/>
<path fill-rule="evenodd" clip-rule="evenodd" d="M35.9511 33.092L63.3883 33.0918C64.359 33.0918 65.3289 33.2344 66.3426 33.707C67.5577 34.2734 68.2021 35.1661 68.6535 35.8264C68.6886 35.8777 68.7215 35.9307 68.7519 35.9848C69.2826 36.9296 69.5562 37.9498 69.5562 39.0471C69.5562 40.0898 69.3081 41.2258 68.7519 42.2158C68.7466 42.2255 68.7412 42.2347 68.7358 42.2441L51.4014 72.0208C51.0192 72.6776 50.3156 73.0803 49.5558 73.0776C48.796 73.075 48.0952 72.6671 47.7177 72.0077L30.7016 42.2946C30.6967 42.2866 30.6918 42.2786 30.687 42.2704C30.2975 41.6286 29.6953 40.6363 29.59 39.3557C29.4932 38.178 29.7579 36.998 30.3496 35.9749C30.9413 34.9516 31.8322 34.1336 32.9037 33.6329C34.0526 33.096 35.2168 33.092 35.9511 33.092ZM47.4364 37.3456H35.9511C35.1966 37.3456 34.9069 37.3921 34.7044 37.4868C34.4243 37.6175 34.1892 37.8325 34.032 38.1044C33.8747 38.3764 33.8036 38.6916 33.8295 39.0071C33.8443 39.1879 33.918 39.3948 34.3529 40.112C34.362 40.127 34.3709 40.1422 34.3796 40.1574L47.4364 62.9569V37.3456ZM51.6902 37.3456V63.0696L65.0494 40.1212C65.2002 39.8473 65.3024 39.4514 65.3024 39.0471C65.3024 38.7192 65.2344 38.4344 65.0824 38.1409C64.9229 37.9115 64.8258 37.7901 64.7445 37.7069C64.6748 37.6358 64.6212 37.5977 64.5454 37.5624C64.2295 37.4152 63.9063 37.3456 63.3883 37.3456H51.6902Z" fill="white"/>
</g>
<defs>
<linearGradient id="paint0_linear_129_1015" x1="49.5631" y1="0.763672" x2="49.5631" y2="98.6012" gradientUnits="userSpaceOnUse">
<stop offset="0.0186503" stop-color="#4C65D1"/>
<stop offset="1" stop-color="#7669F7"/>
</linearGradient>
<clipPath id="clip0_129_1015">
<rect width="97.8375" height="97.8375" fill="white" transform="translate(0.644348 0.763672)"/>
</clipPath>
</defs>
</svg>
